<mxfile host="app.diagrams.net" modified="2022-06-20T15:32:27.143Z" agent="5.0 (Windows NT 10.0; Win64; x64) AppleWebKit/537.36 (KHTML, like Gecko) Chrome/102.0.0.0 Safari/537.36" etag="KZ9T4PNS5jlH5Ueouy1t" version="20.0.1" type="github">
  <diagram id="mZD2VUI_tnMapn8d2QGI" name="Page-1">
    <mxGraphModel dx="1203" dy="729" grid="1" gridSize="10" guides="1" tooltips="1" connect="1" arrows="1" fold="1" page="1" pageScale="1" pageWidth="1169" pageHeight="827" math="0" shadow="0">
      <root>
        <mxCell id="0" />
        <mxCell id="1" parent="0" />
        <mxCell id="YjubN_y4shSopCqXi1uw-18" style="edgeStyle=orthogonalEdgeStyle;rounded=0;orthogonalLoop=1;jettySize=auto;html=1;exitX=0.5;exitY=1;exitDx=0;exitDy=0;entryX=0.5;entryY=0;entryDx=0;entryDy=0;" edge="1" parent="1" source="YjubN_y4shSopCqXi1uw-1" target="YjubN_y4shSopCqXi1uw-4">
          <mxGeometry relative="1" as="geometry" />
        </mxCell>
        <mxCell id="YjubN_y4shSopCqXi1uw-1" value="ได้รับ Order" style="ellipse;whiteSpace=wrap;html=1;" vertex="1" parent="1">
          <mxGeometry x="200" y="30" width="150" height="100" as="geometry" />
        </mxCell>
        <mxCell id="YjubN_y4shSopCqXi1uw-11" value="Y" style="edgeStyle=orthogonalEdgeStyle;rounded=0;orthogonalLoop=1;jettySize=auto;html=1;exitX=1;exitY=0.5;exitDx=0;exitDy=0;entryX=0;entryY=0.5;entryDx=0;entryDy=0;" edge="1" parent="1" source="YjubN_y4shSopCqXi1uw-4" target="YjubN_y4shSopCqXi1uw-10">
          <mxGeometry relative="1" as="geometry" />
        </mxCell>
        <mxCell id="YjubN_y4shSopCqXi1uw-17" value="N" style="edgeStyle=orthogonalEdgeStyle;rounded=0;orthogonalLoop=1;jettySize=auto;html=1;exitX=0.5;exitY=1;exitDx=0;exitDy=0;entryX=0.5;entryY=0;entryDx=0;entryDy=0;" edge="1" parent="1" source="YjubN_y4shSopCqXi1uw-4" target="YjubN_y4shSopCqXi1uw-19">
          <mxGeometry relative="1" as="geometry">
            <mxPoint x="275" y="350" as="targetPoint" />
          </mxGeometry>
        </mxCell>
        <mxCell id="YjubN_y4shSopCqXi1uw-4" value="สต๊อก FG พอสกัด" style="rhombus;whiteSpace=wrap;html=1;" vertex="1" parent="1">
          <mxGeometry x="200" y="170" width="150" height="120" as="geometry" />
        </mxCell>
        <mxCell id="YjubN_y4shSopCqXi1uw-13" style="edgeStyle=orthogonalEdgeStyle;rounded=0;orthogonalLoop=1;jettySize=auto;html=1;exitX=1;exitY=0.5;exitDx=0;exitDy=0;entryX=0;entryY=0.5;entryDx=0;entryDy=0;" edge="1" parent="1" source="YjubN_y4shSopCqXi1uw-10" target="YjubN_y4shSopCqXi1uw-12">
          <mxGeometry relative="1" as="geometry" />
        </mxCell>
        <mxCell id="YjubN_y4shSopCqXi1uw-10" value="สกัด" style="rounded=0;whiteSpace=wrap;html=1;" vertex="1" parent="1">
          <mxGeometry x="420" y="200" width="120" height="60" as="geometry" />
        </mxCell>
        <mxCell id="YjubN_y4shSopCqXi1uw-12" value="Shipment" style="ellipse;whiteSpace=wrap;html=1;" vertex="1" parent="1">
          <mxGeometry x="640" y="180" width="160" height="100" as="geometry" />
        </mxCell>
        <mxCell id="YjubN_y4shSopCqXi1uw-19" value="พาร์ทพอ" style="rhombus;whiteSpace=wrap;html=1;" vertex="1" parent="1">
          <mxGeometry x="200" y="370" width="147.5" height="130" as="geometry" />
        </mxCell>
        <mxCell id="YjubN_y4shSopCqXi1uw-23" value="ผลิตเพิ่ม" style="rounded=0;whiteSpace=wrap;html=1;" vertex="1" parent="1">
          <mxGeometry x="420" y="405" width="120" height="60" as="geometry" />
        </mxCell>
        <mxCell id="YjubN_y4shSopCqXi1uw-25" value="Y" style="endArrow=classic;html=1;rounded=0;exitX=1;exitY=0.5;exitDx=0;exitDy=0;" edge="1" parent="1" source="YjubN_y4shSopCqXi1uw-19" target="YjubN_y4shSopCqXi1uw-23">
          <mxGeometry width="50" height="50" relative="1" as="geometry">
            <mxPoint x="230" y="520" as="sourcePoint" />
            <mxPoint x="280" y="470" as="targetPoint" />
          </mxGeometry>
        </mxCell>
        <mxCell id="YjubN_y4shSopCqXi1uw-26" value="" style="endArrow=classic;html=1;rounded=0;exitX=0.5;exitY=1;exitDx=0;exitDy=0;entryX=0.5;entryY=0;entryDx=0;entryDy=0;" edge="1" parent="1" source="YjubN_y4shSopCqXi1uw-19" target="YjubN_y4shSopCqXi1uw-27">
          <mxGeometry width="50" height="50" relative="1" as="geometry">
            <mxPoint x="360" y="480" as="sourcePoint" />
            <mxPoint x="274" y="570" as="targetPoint" />
          </mxGeometry>
        </mxCell>
        <mxCell id="YjubN_y4shSopCqXi1uw-27" value="ผลิตเพิ่ม" style="rounded=0;whiteSpace=wrap;html=1;" vertex="1" parent="1">
          <mxGeometry x="213.75" y="580" width="120" height="60" as="geometry" />
        </mxCell>
      </root>
    </mxGraphModel>
  </diagram>
</mxfile>
